<?xml version="1.0" encoding="UTF-8" standalone="no"?>
<!-- Created with Inkscape (http://www.inkscape.org/) -->

<svg
   xmlns:dc="http://purl.org/dc/elements/1.1/"
   xmlns:cc="http://creativecommons.org/ns#"
   xmlns:rdf="http://www.w3.org/1999/02/22-rdf-syntax-ns#"
   xmlns:svg="http://www.w3.org/2000/svg"
   xmlns="http://www.w3.org/2000/svg"
   xmlns:sodipodi="http://sodipodi.sourceforge.net/DTD/sodipodi-0.dtd"
   xmlns:inkscape="http://www.inkscape.org/namespaces/inkscape"
   width="313"
   height="109"
   viewBox="0 0 82.814581 28.839584"
   version="1.1"
   id="svg4499"
   sodipodi:docname="logo.svg"
   inkscape:version="0.92.1 r15371">
  <defs
     id="defs4493">
    <filter
       style="color-interpolation-filters:sRGB;"
       inkscape:label="Drop Shadow"
       id="filter6262">
      <feFlood
         flood-opacity="0.498039"
         flood-color="rgb(0,0,0)"
         result="flood"
         id="feFlood6252" />
      <feComposite
         in="SourceGraphic"
         in2="flood"
         operator="in"
         result="composite1"
         id="feComposite6254" />
      <feGaussianBlur
         in="composite1"
         stdDeviation="1.2"
         result="blur"
         id="feGaussianBlur6256" />
      <feOffset
         dx="1"
         dy="0.8"
         result="offset"
         id="feOffset6258" />
      <feComposite
         in="SourceGraphic"
         in2="offset"
         operator="over"
         result="composite2"
         id="feComposite6260" />
    </filter>
    <clipPath
       clipPathUnits="userSpaceOnUse"
       id="clipPath4522">
      <rect
         style="color:#000000;display:inline;overflow:visible;visibility:visible;opacity:1;vector-effect:none;fill:#fbfcea;fill-opacity:1;fill-rule:evenodd;stroke:none;stroke-width:0.2913014;stroke-linecap:butt;stroke-linejoin:miter;stroke-miterlimit:4;stroke-dasharray:none;stroke-dashoffset:0;stroke-opacity:1;marker:none;enable-background:accumulate"
         id="rect4524"
         width="91.760674"
         height="31.395802"
         x="-6.7325492"
         y="266.88226" />
    </clipPath>
  </defs>
  <sodipodi:namedview
     id="base"
     pagecolor="#ffffff"
     bordercolor="#666666"
     borderopacity="1.0"
     inkscape:pageopacity="0.0"
     inkscape:pageshadow="2"
     inkscape:zoom="1.979899"
     inkscape:cx="191.66937"
     inkscape:cy="45.229513"
     inkscape:document-units="mm"
     inkscape:current-layer="g5114"
     showgrid="false"
     units="px"
     inkscape:window-width="1432"
     inkscape:window-height="713"
     inkscape:window-x="1467"
     inkscape:window-y="178"
     inkscape:window-maximized="0" />
  <metadata
     id="metadata4496">
    <rdf:RDF>
      <cc:Work
         rdf:about="">
        <dc:format>image/svg+xml</dc:format>
        <dc:type
           rdf:resource="http://purl.org/dc/dcmitype/StillImage" />
        <dc:title />
      </cc:Work>
    </rdf:RDF>
  </metadata>
  <g
     inkscape:label="Layer 1"
     inkscape:groupmode="layer"
     id="layer1"
     transform="translate(0,-268.16038)">
    <g
       id="g5114"
       transform="matrix(0.88108586,0,0,0.88108586,4.9856899,33.60278)">
      <g
         id="g6250"
         transform="translate(2.1893891)"
         style="filter:url(#filter6262)"
         clip-path="url(#clipPath4522)">
        <g
           id="g85"
           style="fill:#000000;fill-opacity:1"
           transform="matrix(0.27795002,0,0,0.27795002,-96.008826,218.38409)">
          <path
             style="font-weight:normal;font-size:72px;font-family:Sylfaen;fill:#000000;fill-opacity:1;stroke-width:3.36166334pt"
             d="m 156.5,10.951172 c -10.10779,0 -18.45007,4.535946 -23.90039,12.27539 h -0.006 c 0,0.0018 -0.0114,0.02319 -0.0117,0.02539 -4.41045,6.275767 -6.92383,14.651823 -6.92383,24.4375 v 13.757813 c 0,4.026752 0.4329,7.816296 1.25,11.320312 3.59433,15.41368 14.6752,25.28125 29.5918,25.28125 16.16489,0 27.82313,-11.590474 30.33203,-29.267578 0.0145,-0.05482 0.0376,-0.123094 0.0508,-0.175781 h -0.0293 c 0.3165,-2.290146 0.48828,-4.676974 0.48828,-7.158203 V 47.689453 c 0,-21.877704 -12.53418,-36.738281 -30.8418,-36.738281 z m 0,5.640625 c 6.92726,0 12.53375,2.614657 16.16211,7.292969 4.94837,6.330011 7.91797,15.685743 7.91797,24.492187 v 12.246094 c 0,2.689952 -0.28078,5.430245 -0.80664,8.121094 h -0.0312 l -0.31446,1.607421 c -0.12647,0.540204 -0.26395,1.077798 -0.41015,1.611329 -0.91391,2.486132 -3.72404,6.047234 -5.17774,2.578125 L 169.3145,63.589844 c -2.4428,-4.701843 -5.05638,-7.721492 -7.83984,-9.060547 1.81194,-0.472881 3.50541,-1.130287 5.08203,-1.970703 5.12094,-2.705026 7.67969,-6.670222 7.67969,-11.896485 0,-4.543855 -1.87784,-8.142569 -5.63281,-10.794921 -3.20479,-2.259038 -8.45628,-3.386719 -15.75782,-3.386719 l -11.14843,0.130859 c -0.22737,0 -3.18423,0.41608 -1.79297,-2.144531 0.14394,-0.193991 0.28415,-0.393324 0.43164,-0.582031 3.62947,-4.678312 9.23679,-7.292969 16.16406,-7.292969 z m -19.83594,13.267578 c 3.75042,0.340419 4.44727,3.799842 4.44727,4.060547 l 0.0703,41.132812 c -0.11121,1.647474 -4.83061,3.528493 -6.5918,-1.05664 -0.15183,-0.46431 -0.29293,-0.932924 -0.42968,-1.404297 l -0.29883,-1.085938 c -0.93395,-3.556093 -1.44141,-7.26466 -1.44141,-10.882812 V 48.376953 c 0,-6.333513 1.54121,-12.945778 4.24414,-18.517578 z m 12.00586,0.322266 h 2.83594 c 9.87544,0 14.81445,3.873584 14.81445,11.621093 0,2.206376 -0.50075,4.071746 -1.49804,5.595704 -1.75928,2.678121 -4.55721,4.189484 -8.39063,4.53125 -1.49706,0.131073 -4.10951,0.195312 -7.83984,0.195312 -0.20954,0 -0.31641,-0.130368 -0.31641,-0.392578 v -21.15625 c 0,-0.263334 0.1312,-0.394531 0.39453,-0.394531 z m 0,25.251953 h 0.94727 c 5.27781,0 9.58403,3.494932 12.91992,10.480468 l 3.65039,7.050782 c 1.4081,2.720079 3.69874,9.299589 9.04102,8.298828 -0.78151,1.374677 -1.63945,2.665782 -2.56641,3.851562 -3.62836,4.677198 -9.23485,7.292969 -16.16211,7.292969 -6.92727,0 -12.53459,-2.615771 -16.16406,-7.292969 -1.07298,-1.372876 -2.04703,-2.894514 -2.92383,-4.515625 0.92566,0.07554 1.92258,0.121467 3.03906,0.109375 l 14.8125,0.05664 c 4.00934,0.0874 3.45324,0.263053 0.56445,-1.882813 l -0.48242,-0.380859 c -0.87515,-0.786629 -2.0273,-0.932091 -2.3164,-0.958984 l -2.35742,-0.322266 c -1.63601,-0.14119 -2.33833,-0.845602 -2.50977,-2.054687 L 148.27539,55.75 c 0,-0.210661 0.1312,-0.316406 0.39453,-0.316406 z"
             transform="matrix(0.95190975,0,0,0.95190975,345.41759,179.08359)"
             id="path86"
             inkscape:connector-curvature="0" />
        </g>
        <g
           aria-label="Deric"
           style="font-style:normal;font-variant:normal;font-weight:normal;font-stretch:normal;font-size:18.56977844px;line-height:125%;font-family:Georgia;-inkscape-font-specification:Georgia;text-align:start;letter-spacing:-0.57414585px;word-spacing:0px;writing-mode:lr-tb;text-anchor:start;fill:#000000;fill-opacity:1;stroke:none;stroke-width:0.24870238px;stroke-linecap:butt;stroke-linejoin:miter;stroke-opacity:1"
           id="text5067">
          <path
             d="m 7.6156726,283.39755 q 0,1.34811 -0.5064721,2.33871 -0.506472,0.9906 -1.3183169,1.62369 -0.819293,0.63309 -1.8396852,0.94591 -1.0203922,0.31282 -2.1078174,0.31282 h -4.3794935 v -0.52881 q 0.2159954,0 0.5586089,-0.0372 0.3500615,-0.0447 0.4617833,-0.0968 0.2234435,-0.0968 0.3202691,-0.28303 0.1042736,-0.19365 0.1042736,-0.46178 v -7.62687 q 0,-0.25324 -0.089377,-0.45434 -0.081929,-0.2011 -0.3351653,-0.32027 -0.2308917,-0.11172 -0.4990239,-0.16386 -0.2681323,-0.0521 -0.4617834,-0.067 v -0.52882 h 4.6178333 q 0.9533591,0 1.8769258,0.29793 0.9235666,0.29047 1.6087935,0.7895 0.9310148,0.66288 1.4598312,1.73541 0.5288164,1.07253 0.5288164,2.52491 z m -1.824789,-0.007 q 0,-1.06508 -0.2830285,-1.92161 -0.2830285,-0.86398 -0.8267411,-1.50452 -0.5139201,-0.61075 -1.2661801,-0.96081 -0.7448118,-0.35006 -1.6609303,-0.35006 -0.3053729,0 -0.692675,0.0149 -0.37985406,0.007 -0.56605701,0.0149 v 8.1259 q 0,0.67778 0.39475026,0.93846 0.39475025,0.26069 1.21404325,0.26069 0.945911,0 1.6534823,-0.33517 0.7075712,-0.33516 1.1470102,-0.93101 0.4617833,-0.62564 0.6703306,-1.44494 0.2159954,-0.82674 0.2159954,-1.90672 z"
             style="font-size:15.25374603px;letter-spacing:0px;stroke-width:0.24870238px"
             id="path4496"
             inkscape:connector-curvature="0" />
          <path
             d="m 15.26489,286.89072 q -0.461783,0.87888 -1.236388,1.40025 -0.774604,0.52136 -1.7801,0.52136 -0.886326,0 -1.556657,-0.31282 -0.662882,-0.31282 -1.094873,-0.84908 -0.4319908,-0.53627 -0.6479863,-1.25129 -0.2085473,-0.71502 -0.2085473,-1.51196 0,-0.71502 0.2234436,-1.40025 0.2308916,-0.69268 0.6703306,-1.24384 0.4245424,-0.52881 1.0501844,-0.84908 0.63309,-0.32772 1.415143,-0.32772 0.804396,0 1.377902,0.25324 0.573505,0.25323 0.931014,0.69267 0.342614,0.4171 0.506472,0.98315 0.171307,0.56606 0.171307,1.22894 v 0.49158 h -4.863621 q 0,0.72247 0.134066,1.31087 0.141514,0.5884 0.439439,1.03529 0.290477,0.43199 0.759708,0.68522 0.469232,0.24579 1.117218,0.24579 0.662882,0 1.139562,-0.30537 0.484128,-0.31282 0.931015,-1.11722 z m -1.646034,-2.80049 q 0,-0.4171 -0.07448,-0.89378 -0.06703,-0.47668 -0.223444,-0.79695 -0.171307,-0.34261 -0.469231,-0.5586 -0.297925,-0.216 -0.767157,-0.216 -0.782052,0 -1.30342,0.65543 -0.51392,0.64799 -0.558609,1.8099 z"
             style="font-size:15.25374603px;letter-spacing:0px;stroke-width:0.24870238px"
             id="path4498"
             inkscape:connector-curvature="0" />
          <path
             d="m 21.7522,282.22075 q 0,0.37985 -0.186203,0.67778 -0.186203,0.29047 -0.573505,0.29047 -0.417094,0 -0.640538,-0.21599 -0.215995,-0.216 -0.215995,-0.47668 0,-0.16386 0.02234,-0.29793 0.02979,-0.13406 0.05214,-0.26813 -0.350062,0 -0.819293,0.28303 -0.469232,0.28303 -0.796949,0.8044 v 4.27522 q 0,0.26068 0.09683,0.42454 0.104273,0.16386 0.320269,0.24579 0.186203,0.0745 0.476679,0.11172 0.297925,0.0372 0.513921,0.0521 v 0.49157 h -3.873022 v -0.49157 q 0.171307,-0.0149 0.350062,-0.0298 0.186203,-0.0149 0.320269,-0.0596 0.208547,-0.067 0.305373,-0.23089 0.104273,-0.17131 0.104273,-0.43944 v -4.5359 q 0,-0.2309 -0.111722,-0.45434 -0.104273,-0.22344 -0.297924,-0.35751 -0.141515,-0.0894 -0.335166,-0.12662 -0.193651,-0.0447 -0.417094,-0.0596 v -0.48413 l 2.442983,-0.16386 0.104273,0.10427 v 1.03529 h 0.03724 q 0.461783,-0.60329 1.02784,-0.91612 0.566057,-0.31282 1.035288,-0.31282 0.469232,0 0.759709,0.30538 0.297924,0.30537 0.297924,0.81929 z"
             style="font-size:15.25374603px;letter-spacing:0px;stroke-width:0.24870238px"
             id="path4500"
             inkscape:connector-curvature="0" />
          <path
             d="m 25.95294,288.61868 h -3.552753 v -0.49157 q 0.171307,-0.0149 0.350062,-0.0298 0.186203,-0.0149 0.320269,-0.0596 0.208547,-0.067 0.305373,-0.23089 0.104274,-0.17131 0.104274,-0.43944 v -4.5359 q 0,-0.23834 -0.111722,-0.432 -0.104274,-0.2011 -0.297925,-0.33516 -0.141514,-0.0894 -0.409646,-0.14896 -0.268133,-0.067 -0.491576,-0.0819 v -0.48413 l 2.591945,-0.16386 0.104274,0.10427 v 5.98829 q 0,0.26069 0.09683,0.43199 0.104274,0.17131 0.320269,0.25324 0.163859,0.067 0.320269,0.11172 0.156411,0.0372 0.350062,0.0521 z m -0.938463,-10.33054 q 0,0.42455 -0.283029,0.74481 -0.27558,0.31283 -0.685226,0.31283 -0.379854,0 -0.662883,-0.29793 -0.27558,-0.30537 -0.27558,-0.69267 0,-0.40965 0.27558,-0.71502 0.283029,-0.30538 0.662883,-0.30538 0.424542,0 0.692675,0.29048 0.27558,0.28303 0.27558,0.66288 z"
             style="font-size:15.25374603px;letter-spacing:0px;stroke-width:0.24870238px"
             id="path4502"
             inkscape:connector-curvature="0" />
          <path
             d="m 30.250503,288.81233 q -1.593897,0 -2.495119,-1.05763 -0.901223,-1.05763 -0.901223,-2.83773 0,-0.77461 0.23834,-1.44494 0.245788,-0.67778 0.707571,-1.22894 0.439439,-0.52881 1.102322,-0.84908 0.662882,-0.32772 1.444935,-0.32772 1.079977,0 1.757756,0.52137 0.677778,0.51392 0.677778,1.40769 0,0.37241 -0.178754,0.66289 -0.178755,0.28302 -0.588402,0.28302 -0.439439,0 -0.685227,-0.22344 -0.238339,-0.22344 -0.238339,-0.49902 0,-0.33517 0.08938,-0.68523 0.08938,-0.35751 0.104274,-0.52137 -0.134066,-0.23089 -0.402199,-0.30537 -0.260684,-0.0819 -0.566057,-0.0819 -0.357509,0 -0.685227,0.15641 -0.320269,0.14896 -0.625641,0.55861 -0.275581,0.37241 -0.446888,1.0055 -0.171306,0.63309 -0.171306,1.51196 0,1.38535 0.610745,2.26423 0.618194,0.87143 1.616242,0.87143 0.722467,0 1.206595,-0.35006 0.491576,-0.35006 0.908671,-1.05019 l 0.476679,0.31283 q -0.491576,0.87887 -1.295972,1.39279 -0.804397,0.51392 -1.660931,0.51392 z"
             style="font-size:15.25374603px;letter-spacing:0px;stroke-width:0.24870238px"
             id="path4504"
             inkscape:connector-curvature="0" />
        </g>
        <g
           aria-label="ocha"
           style="font-style:normal;font-variant:normal;font-weight:normal;font-stretch:normal;font-size:18.56977844px;line-height:125%;font-family:Georgia;-inkscape-font-specification:Georgia;text-align:start;letter-spacing:0px;word-spacing:0px;writing-mode:lr-tb;text-anchor:start;fill:#000000;fill-opacity:1;stroke:none;stroke-width:0.24870238px;stroke-linecap:butt;stroke-linejoin:miter;stroke-opacity:1"
           id="text5067-7">
          <path
             d="m 56.990262,284.87228 q 0,0.7746 -0.245788,1.52686 -0.245788,0.74482 -0.700123,1.26618 -0.51392,0.59585 -1.191699,0.88633 -0.677778,0.29048 -1.519416,0.29048 -0.700123,0 -1.333213,-0.26069 -0.63309,-0.26813 -1.124666,-0.7746 -0.484127,-0.49903 -0.774604,-1.21405 -0.283029,-0.72246 -0.283029,-1.61624 0,-1.72051 0.998048,-2.81539 1.005496,-1.09487 2.629186,-1.09487 1.54176,0 2.539808,1.04274 1.005496,1.03529 1.005496,2.76325 z m -1.54176,0.0149 q 0,-0.55861 -0.111722,-1.17681 -0.111722,-0.62564 -0.335165,-1.05763 -0.23834,-0.46178 -0.625642,-0.73736 -0.387302,-0.28303 -0.945911,-0.28303 -0.573505,0 -0.983152,0.28303 -0.402198,0.28302 -0.655434,0.7746 -0.23834,0.45434 -0.335166,1.03529 -0.09683,0.58095 -0.09683,1.12467 0,0.71501 0.111722,1.32576 0.11917,0.6033 0.372406,1.07998 0.253236,0.47668 0.63309,0.75226 0.387302,0.26813 0.953359,0.26813 0.931015,0 1.474727,-0.90122 0.543713,-0.90123 0.543713,-2.48767 z"
             style="font-size:15.25374603px;letter-spacing:0px;stroke-width:0.24870238px"
             id="path4507"
             inkscape:connector-curvature="0" />
          <path
             d="m 61.451685,288.81233 q -1.593898,0 -2.49512,-1.05763 -0.901222,-1.05763 -0.901222,-2.83773 0,-0.77461 0.23834,-1.44494 0.245787,-0.67778 0.707571,-1.22894 0.439439,-0.52881 1.102321,-0.84908 0.662883,-0.32772 1.444935,-0.32772 1.079977,0 1.757756,0.52137 0.677779,0.51392 0.677779,1.40769 0,0.37241 -0.178755,0.66289 -0.178755,0.28302 -0.588401,0.28302 -0.439439,0 -0.685227,-0.22344 -0.23834,-0.22344 -0.23834,-0.49902 0,-0.33517 0.08938,-0.68523 0.08938,-0.35751 0.104274,-0.52137 -0.134066,-0.23089 -0.402198,-0.30537 -0.260684,-0.0819 -0.566057,-0.0819 -0.35751,0 -0.685227,0.15641 -0.320269,0.14896 -0.625642,0.55861 -0.27558,0.37241 -0.446887,1.0055 -0.171307,0.63309 -0.171307,1.51196 0,1.38535 0.610746,2.26423 0.618194,0.87143 1.616241,0.87143 0.722468,0 1.206596,-0.35006 0.491575,-0.35006 0.90867,-1.05019 l 0.47668,0.31283 q -0.491576,0.87887 -1.295973,1.39279 -0.804397,0.51392 -1.66093,0.51392 z"
             style="font-size:15.25374603px;letter-spacing:0px;stroke-width:0.24870238px"
             id="path4509"
             inkscape:connector-curvature="0" />
          <path
             d="m 72.973923,288.61868 h -3.604889 v -0.49157 q 0.171306,-0.0149 0.379854,-0.0298 0.208547,-0.0149 0.342613,-0.0596 0.208548,-0.067 0.305373,-0.23089 0.104274,-0.17131 0.104274,-0.43944 v -3.7762 q 0,-0.78205 -0.372406,-1.20659 -0.364958,-0.42454 -0.893774,-0.42454 -0.387303,0 -0.722468,0.12661 -0.327717,0.11917 -0.588401,0.29793 -0.253236,0.1862 -0.387302,0.3724 -0.134066,0.18621 -0.208548,0.31282 v 4.22309 q 0,0.25323 0.09683,0.41709 0.104274,0.16386 0.312821,0.25324 0.163858,0.0745 0.335165,0.11172 0.178755,0.0372 0.387302,0.0521 v 0.49157 h -3.604889 v -0.49157 q 0.171307,-0.0149 0.35751,-0.0298 0.186203,-0.0223 0.312821,-0.0596 0.208547,-0.067 0.312821,-0.23089 0.104273,-0.17131 0.104273,-0.43944 v -8.55044 q 0,-0.25324 -0.119169,-0.50647 -0.111722,-0.25324 -0.297925,-0.37986 -0.134066,-0.0968 -0.47668,-0.13406 -0.335165,-0.0447 -0.543712,-0.0596 v -0.47668 l 2.718563,-0.1713 0.104273,0.11172 v 5.1243 h 0.02979 q 0.245788,-0.24578 0.446887,-0.43199 0.201099,-0.19365 0.528816,-0.4022 0.283029,-0.17875 0.662883,-0.29792 0.387302,-0.11917 0.863982,-0.11917 0.983151,0 1.511968,0.62564 0.528816,0.61819 0.528816,1.78755 v 3.82088 q 0,0.26069 0.08938,0.42455 0.09683,0.15641 0.312821,0.24578 0.171307,0.067 0.305373,0.10428 0.141514,0.0298 0.364958,0.0447 z"
             style="font-size:15.25374603px;letter-spacing:0px;stroke-width:0.24870238px"
             id="path4511"
             inkscape:connector-curvature="0" />
          <path
             d="m 80.831687,288.48462 q -0.350061,0.12661 -0.618193,0.2011 -0.260685,0.0819 -0.59585,0.0819 -0.580953,0 -0.931015,-0.26814 -0.342613,-0.27558 -0.439439,-0.79695 H 78.2025 q -0.484128,0.53627 -1.042737,0.8193 -0.551161,0.28303 -1.333213,0.28303 -0.826741,0 -1.363006,-0.50648 -0.528816,-0.50647 -0.528816,-1.32576 0,-0.42454 0.11917,-0.75971 0.11917,-0.33516 0.35751,-0.6033 0.186203,-0.22344 0.491575,-0.39475 0.305373,-0.17875 0.573505,-0.28303 0.335166,-0.12661 1.355558,-0.46923 1.02784,-0.34261 1.38535,-0.53626 V 283.189 q 0,-0.0968 -0.04469,-0.3724 -0.03724,-0.27558 -0.171306,-0.52137 -0.148963,-0.27558 -0.424543,-0.47668 -0.268132,-0.20855 -0.767156,-0.20855 -0.342614,0 -0.640539,0.11917 -0.290476,0.11173 -0.409646,0.23834 0,0.14897 0.06703,0.43944 0.07448,0.29048 0.07448,0.53627 0,0.26068 -0.23834,0.47668 -0.230891,0.21599 -0.647986,0.21599 -0.372406,0 -0.551161,-0.26068 -0.171306,-0.26813 -0.171306,-0.59585 0,-0.34262 0.238339,-0.65544 0.245788,-0.31282 0.63309,-0.55861 0.335166,-0.20854 0.811845,-0.35006 0.47668,-0.14896 0.931015,-0.14896 0.625642,0 1.087425,0.0894 0.469232,0.0819 0.849086,0.36496 0.379854,0.27558 0.573505,0.75226 0.201099,0.46923 0.201099,1.21404 0,1.06508 -0.02234,1.89182 -0.02235,0.81929 -0.02235,1.795 0,0.29047 0.09683,0.46178 0.104274,0.17131 0.312821,0.29048 0.111722,0.067 0.350062,0.0745 0.245787,0.007 0.499023,0.007 z m -2.599393,-3.93261 q -0.63309,0.1862 -1.109769,0.36496 -0.47668,0.17875 -0.886326,0.44689 -0.372406,0.25323 -0.588402,0.60329 -0.215995,0.34262 -0.215995,0.8193 0,0.61819 0.320269,0.90867 0.327717,0.29047 0.826741,0.29047 0.528816,0 0.931015,-0.25323 0.402198,-0.26069 0.677778,-0.61075 z"
             style="font-size:15.25374603px;letter-spacing:0px;stroke-width:0.24870238px"
             id="path4513"
             inkscape:connector-curvature="0" />
        </g>
      </g>
    </g>
  </g>
</svg>
