<?xml version="1.0" encoding="UTF-8" ?>
<!DOCTYPE svg PUBLIC "-//W3C//DTD SVG 1.1//EN" "http://www.w3.org/Graphics/SVG/1.1/DTD/svg11.dtd">
<svg width="803pt" height="149pt" viewBox="0 0 803 149" version="1.1" xmlns="http://www.w3.org/2000/svg">
<g id="#000000ff">
</g>
<g id="#336666ff">
<path fill="#336666" opacity="1.00" d=" M 74.58 0.00 L 728.48 0.00 C 759.39 1.51 789.36 22.16 799.28 51.88 C 801.35 57.89 802.48 64.19 803.00 70.51 L 803.00 79.84 C 801.10 95.69 794.71 111.09 783.93 122.96 C 770.00 138.85 749.21 147.44 728.40 149.00 L 175.63 149.00 C 173.07 148.88 170.52 148.73 167.97 148.72 C 137.30 148.77 106.64 148.71 75.97 148.75 C 47.58 148.28 19.70 131.42 7.32 105.64 C 3.30 97.65 1.27 88.86 0.00 80.06 L 0.00 68.18 C 0.30 66.14 0.66 64.12 1.03 62.10 C 3.97 43.89 15.13 27.70 29.63 16.62 C 42.47 6.68 58.34 0.75 74.58 0.00 M 55.03 9.04 C 40.42 13.61 27.24 22.90 18.34 35.40 C 6.90 51.59 3.11 72.89 8.22 92.04 C 15.57 120.76 43.46 142.52 73.05 142.99 C 232.03 143.01 391.02 143.00 550.00 143.00 C 550.00 97.33 550.00 51.67 550.00 6.00 C 393.67 6.00 237.33 6.01 81.00 6.00 C 72.27 5.81 63.41 6.43 55.03 9.04 M 640.89 28.30 C 636.91 28.75 632.85 28.74 628.99 29.90 C 618.79 33.05 607.84 32.95 597.84 36.89 C 597.05 39.42 596.09 42.69 598.04 44.93 C 599.21 46.45 601.31 46.43 603.01 45.97 C 614.91 43.18 626.92 40.86 638.97 38.80 C 645.22 37.70 651.58 37.07 657.93 37.49 C 632.23 56.71 611.74 81.64 589.87 104.88 C 586.78 108.23 582.98 111.42 581.91 116.06 C 581.41 118.68 581.80 122.23 584.59 123.42 C 588.61 125.70 593.38 124.56 597.57 123.40 C 603.00 121.77 608.69 121.41 614.19 120.06 C 628.64 116.82 643.33 114.57 658.12 113.58 C 670.16 112.61 682.35 112.13 694.09 109.03 C 698.07 107.94 702.10 107.07 706.15 106.24 C 706.68 105.45 707.22 104.66 707.77 103.87 C 708.99 103.36 710.18 102.82 711.37 102.21 C 697.25 101.75 683.10 102.15 668.97 102.01 C 654.83 101.70 640.78 103.78 626.90 106.30 C 617.69 108.00 608.44 109.60 599.41 112.10 C 601.46 107.52 604.36 103.35 607.61 99.55 C 625.26 79.56 644.19 60.58 665.38 44.32 C 668.70 41.72 671.88 38.86 674.53 35.55 C 677.75 31.78 674.05 24.64 669.03 25.48 C 659.61 25.91 650.27 27.41 640.89 28.30 M 700.36 57.36 C 695.01 60.74 694.57 68.55 697.18 73.78 C 700.28 79.31 707.82 79.13 712.89 76.67 C 712.90 75.23 712.92 73.80 712.96 72.36 C 709.57 74.62 704.19 76.74 701.14 72.84 C 698.79 69.19 698.73 63.14 702.33 60.25 C 705.80 57.89 709.85 60.08 713.01 61.88 C 712.93 60.38 712.86 58.88 712.79 57.39 C 708.87 55.91 704.11 54.98 700.36 57.36 M 721.32 56.36 C 714.76 58.68 713.68 67.29 716.03 72.98 C 718.33 78.78 726.60 80.14 731.13 76.22 C 735.19 72.35 735.46 65.69 733.21 60.81 C 731.17 56.40 725.69 54.99 721.32 56.36 M 739.03 56.24 C 738.97 63.46 739.00 70.68 739.01 77.90 C 740.25 77.88 741.49 77.85 742.74 77.83 C 742.78 72.49 742.78 67.16 742.75 61.83 C 745.32 60.11 749.61 57.94 751.95 61.12 C 752.95 66.62 752.19 72.27 752.46 77.84 C 753.70 77.86 754.96 77.87 756.22 77.89 C 756.24 72.60 756.33 67.30 756.15 62.02 C 758.74 59.87 764.47 57.61 765.82 62.11 C 766.36 67.34 765.89 72.62 766.07 77.87 C 767.32 77.86 768.58 77.86 769.85 77.85 C 769.79 72.59 770.06 67.32 769.75 62.07 C 769.53 59.06 767.32 55.91 764.05 55.96 C 760.82 55.40 757.99 57.13 755.50 58.93 C 752.55 54.76 746.64 55.34 743.02 58.26 C 743.09 55.81 740.66 56.43 739.03 56.24 M 685.61 72.13 C 685.60 74.04 685.60 75.95 685.61 77.87 C 687.17 77.87 688.74 77.87 690.31 77.87 C 690.31 75.96 690.31 74.04 690.31 72.13 C 688.74 72.13 687.17 72.13 685.61 72.13 Z" />
<path fill="#336666" opacity="1.00" d=" M 435.49 23.25 C 437.41 23.25 439.32 23.25 441.24 23.24 C 441.25 26.49 441.25 29.74 441.25 32.99 C 452.80 32.96 464.36 33.13 475.91 32.86 C 496.57 33.28 514.10 53.00 513.05 73.47 C 516.20 73.49 519.35 73.64 522.50 73.80 C 522.49 75.62 522.50 77.44 522.50 79.26 C 519.31 79.49 516.10 79.52 512.91 79.52 C 511.07 99.01 492.84 116.04 472.99 114.82 C 462.34 114.74 451.68 114.63 441.03 114.88 C 441.28 118.07 441.30 121.28 441.14 124.48 C 439.25 124.59 437.38 124.71 435.50 124.81 C 435.50 121.47 435.50 118.12 435.49 114.78 C 419.98 114.32 404.37 116.07 388.95 113.79 C 373.20 110.09 361.19 95.40 359.37 79.50 C 356.16 79.52 352.95 79.49 349.75 79.26 C 349.75 77.44 349.75 75.62 349.75 73.81 C 352.89 73.64 356.03 73.49 359.17 73.46 C 358.24 53.06 375.47 33.52 396.04 32.81 C 409.19 33.18 422.35 32.93 435.50 33.00 C 435.50 29.75 435.50 26.50 435.49 23.25 M 364.96 73.50 C 376.66 73.57 388.36 73.28 400.05 73.76 C 411.86 73.30 423.68 73.57 435.50 73.50 C 435.51 61.92 435.50 50.33 435.50 38.75 C 421.99 38.79 408.47 38.67 394.96 38.81 C 378.09 40.29 363.95 56.55 364.96 73.50 M 441.24 38.76 C 441.25 50.34 441.25 61.92 441.24 73.49 C 452.16 73.58 463.08 73.29 473.99 73.75 C 485.09 73.30 496.21 73.57 507.33 73.49 C 507.93 57.64 495.96 41.58 479.91 39.43 C 467.10 37.48 454.13 39.18 441.24 38.76 M 441.01 79.49 C 440.99 89.14 441.00 98.79 441.00 108.44 C 454.71 108.19 468.46 109.02 482.14 107.88 C 495.30 104.97 505.39 92.69 507.04 79.48 C 485.03 79.52 463.02 79.49 441.01 79.49 M 365.22 79.48 C 366.74 92.16 375.98 103.58 388.16 107.50 C 391.71 108.41 395.41 108.29 399.05 108.43 C 411.11 108.47 423.18 108.44 435.25 108.44 C 435.06 98.79 435.54 89.15 435.49 79.50 C 412.07 79.49 388.65 79.52 365.22 79.48 Z" />
<path fill="#336666" opacity="1.00" d=" M 64.24 33.01 C 96.49 32.98 128.74 33.04 160.98 32.98 C 178.66 31.78 194.08 49.81 190.62 67.09 C 188.40 80.20 176.42 91.29 162.96 91.50 C 132.06 91.49 101.16 91.51 70.26 91.49 C 70.23 99.25 70.28 107.01 70.23 114.76 C 68.33 114.75 66.44 114.75 64.54 114.75 C 64.02 107.01 64.33 99.25 64.25 91.50 C 54.08 91.49 43.92 91.50 33.75 91.49 C 33.75 89.58 33.75 87.67 33.75 85.75 C 43.92 85.78 54.09 85.79 64.25 85.47 C 64.24 67.98 64.25 50.50 64.24 33.01 M 70.25 38.76 C 70.25 54.42 70.24 70.08 70.25 85.75 C 100.84 85.75 131.43 85.75 162.03 85.75 C 170.34 85.63 178.76 80.96 182.47 73.37 C 186.03 66.85 186.25 58.64 182.93 51.97 C 179.91 45.34 173.38 40.34 166.16 39.30 C 134.21 38.21 102.21 39.02 70.25 38.76 Z" />
<path fill="#336666" opacity="1.00" d=" M 209.24 33.01 C 244.16 32.98 279.07 33.03 313.98 32.98 C 322.15 33.30 329.96 37.63 334.88 44.10 C 343.06 54.55 341.99 70.51 333.37 80.37 C 331.12 83.19 327.92 84.96 324.98 86.95 C 328.48 89.75 332.27 92.35 334.57 96.34 C 338.20 101.69 339.46 108.31 338.96 114.70 C 337.08 114.73 335.20 114.75 333.33 114.77 C 333.37 108.56 332.12 102.00 327.86 97.24 C 323.69 92.48 317.39 89.57 311.04 89.73 C 279.03 89.78 247.01 89.73 215.00 89.75 C 214.99 98.09 215.01 106.42 214.99 114.76 C 213.08 114.75 211.16 114.75 209.25 114.75 C 209.24 87.50 209.25 60.25 209.24 33.01 M 215.00 38.75 C 215.00 53.84 215.00 68.92 215.00 84.00 C 246.66 84.01 278.33 83.99 309.99 84.01 C 315.70 84.05 321.64 82.87 326.23 79.30 C 332.53 74.73 335.24 66.50 334.68 58.95 C 334.07 50.51 328.21 42.55 320.07 39.96 C 316.21 38.50 312.02 39.09 307.99 39.00 C 277.00 38.50 246.00 38.86 215.00 38.75 Z" />
<path fill="#336666" opacity="1.00" d=" M 722.46 59.65 C 725.63 58.18 729.78 60.25 730.30 63.77 C 731.12 67.55 730.99 73.04 726.79 74.77 C 723.35 76.18 719.45 73.54 719.04 69.96 C 718.56 66.39 718.50 61.29 722.46 59.65 Z" />
</g>
<g id="#ffffffff">
<path fill="#ffffff" opacity="1.00" d=" M 55.03 9.04 C 63.41 6.43 72.27 5.81 81.00 6.00 C 237.33 6.01 393.67 6.00 550.00 6.00 C 550.00 51.67 550.00 97.33 550.00 143.00 C 391.02 143.00 232.03 143.01 73.05 142.99 C 43.46 142.52 15.57 120.76 8.22 92.04 C 3.11 72.89 6.90 51.59 18.34 35.40 C 27.24 22.90 40.42 13.61 55.03 9.04 M 435.49 23.25 C 435.50 26.50 435.50 29.75 435.50 33.00 C 422.35 32.93 409.19 33.18 396.04 32.81 C 375.47 33.52 358.24 53.06 359.17 73.46 C 356.03 73.49 352.89 73.64 349.75 73.81 C 349.75 75.62 349.75 77.44 349.75 79.26 C 352.95 79.49 356.16 79.52 359.37 79.50 C 361.19 95.40 373.20 110.09 388.95 113.79 C 404.37 116.07 419.98 114.32 435.49 114.78 C 435.50 118.12 435.50 121.47 435.50 124.81 C 437.38 124.71 439.25 124.59 441.14 124.48 C 441.30 121.28 441.28 118.07 441.03 114.88 C 451.68 114.63 462.34 114.74 472.99 114.82 C 492.84 116.04 511.07 99.01 512.91 79.52 C 516.10 79.52 519.31 79.49 522.50 79.26 C 522.50 77.44 522.49 75.62 522.50 73.80 C 519.35 73.64 516.20 73.49 513.05 73.47 C 514.10 53.00 496.57 33.28 475.91 32.86 C 464.36 33.13 452.80 32.96 441.25 32.99 C 441.25 29.74 441.25 26.49 441.24 23.24 C 439.32 23.25 437.41 23.25 435.49 23.25 M 64.24 33.01 C 64.25 50.50 64.24 67.98 64.25 85.47 C 54.09 85.79 43.92 85.78 33.75 85.75 C 33.75 87.67 33.75 89.58 33.75 91.49 C 43.92 91.50 54.08 91.49 64.25 91.50 C 64.33 99.25 64.02 107.01 64.54 114.75 C 66.44 114.75 68.33 114.75 70.23 114.76 C 70.28 107.01 70.23 99.25 70.26 91.49 C 101.16 91.51 132.06 91.49 162.96 91.50 C 176.42 91.29 188.40 80.20 190.62 67.09 C 194.08 49.81 178.66 31.78 160.98 32.98 C 128.74 33.04 96.49 32.98 64.24 33.01 M 209.24 33.01 C 209.25 60.25 209.24 87.50 209.25 114.75 C 211.16 114.75 213.08 114.75 214.99 114.76 C 215.01 106.42 214.99 98.09 215.00 89.75 C 247.01 89.73 279.03 89.78 311.04 89.73 C 317.39 89.57 323.69 92.48 327.86 97.24 C 332.12 102.00 333.37 108.56 333.33 114.77 C 335.20 114.75 337.08 114.73 338.96 114.70 C 339.46 108.31 338.20 101.69 334.57 96.34 C 332.27 92.35 328.48 89.75 324.98 86.95 C 327.92 84.96 331.12 83.19 333.37 80.37 C 341.99 70.51 343.06 54.55 334.88 44.10 C 329.96 37.63 322.15 33.30 313.98 32.98 C 279.07 33.03 244.16 32.98 209.24 33.01 Z" />
<path fill="#ffffff" opacity="1.00" d=" M 640.89 28.30 C 650.27 27.41 659.61 25.91 669.03 25.48 C 674.05 24.64 677.75 31.78 674.53 35.55 C 671.88 38.86 668.70 41.72 665.38 44.32 C 644.19 60.58 625.26 79.56 607.61 99.55 C 604.36 103.35 601.46 107.52 599.41 112.10 C 608.44 109.60 617.69 108.00 626.90 106.30 C 640.78 103.78 654.83 101.70 668.97 102.01 C 683.10 102.15 697.25 101.75 711.37 102.21 C 710.18 102.82 708.99 103.36 707.77 103.87 C 707.22 104.66 706.68 105.45 706.15 106.24 C 702.10 107.07 698.07 107.94 694.09 109.03 C 682.35 112.13 670.16 112.61 658.12 113.58 C 643.33 114.57 628.64 116.82 614.19 120.06 C 608.69 121.41 603.00 121.77 597.57 123.40 C 593.38 124.56 588.61 125.70 584.59 123.42 C 581.80 122.23 581.41 118.68 581.91 116.06 C 582.98 111.42 586.78 108.23 589.87 104.88 C 611.74 81.64 632.23 56.71 657.93 37.49 C 651.58 37.07 645.22 37.70 638.97 38.80 C 626.92 40.86 614.91 43.18 603.01 45.97 C 601.31 46.43 599.21 46.45 598.04 44.93 C 596.09 42.69 597.05 39.42 597.84 36.89 C 607.84 32.95 618.79 33.05 628.99 29.90 C 632.85 28.74 636.91 28.75 640.89 28.30 Z" />
<path fill="#ffffff" opacity="1.00" d=" M 70.25 38.76 C 102.21 39.02 134.21 38.21 166.16 39.30 C 173.38 40.34 179.91 45.34 182.93 51.97 C 186.25 58.64 186.03 66.85 182.47 73.37 C 178.76 80.96 170.34 85.63 162.03 85.75 C 131.43 85.75 100.84 85.75 70.25 85.75 C 70.24 70.08 70.25 54.42 70.25 38.76 Z" />
<path fill="#ffffff" opacity="1.00" d=" M 215.00 38.75 C 246.00 38.86 277.00 38.50 307.99 39.00 C 312.02 39.09 316.21 38.50 320.07 39.96 C 328.21 42.55 334.07 50.51 334.68 58.95 C 335.24 66.50 332.53 74.73 326.23 79.30 C 321.64 82.87 315.70 84.05 309.99 84.01 C 278.33 83.99 246.66 84.01 215.00 84.00 C 215.00 68.92 215.00 53.84 215.00 38.75 Z" />
<path fill="#ffffff" opacity="1.00" d=" M 364.96 73.50 C 363.95 56.55 378.09 40.29 394.96 38.81 C 408.47 38.67 421.99 38.79 435.50 38.75 C 435.50 50.33 435.51 61.92 435.50 73.50 C 423.68 73.57 411.86 73.30 400.05 73.76 C 388.36 73.28 376.66 73.57 364.96 73.50 Z" />
<path fill="#ffffff" opacity="1.00" d=" M 441.24 38.76 C 454.13 39.18 467.10 37.48 479.91 39.43 C 495.96 41.58 507.93 57.64 507.33 73.49 C 496.21 73.57 485.09 73.30 473.99 73.75 C 463.08 73.29 452.16 73.58 441.24 73.49 C 441.25 61.92 441.25 50.34 441.24 38.76 Z" />
<path fill="#ffffff" opacity="1.00" d=" M 700.36 57.36 C 704.11 54.98 708.87 55.91 712.79 57.39 C 712.86 58.88 712.93 60.38 713.01 61.88 C 709.85 60.08 705.80 57.89 702.33 60.25 C 698.73 63.14 698.79 69.19 701.14 72.84 C 704.19 76.74 709.57 74.62 712.96 72.36 C 712.92 73.80 712.90 75.23 712.89 76.67 C 707.82 79.13 700.28 79.31 697.18 73.78 C 694.57 68.55 695.01 60.74 700.36 57.36 Z" />
<path fill="#ffffff" opacity="1.00" d=" M 721.32 56.36 C 725.69 54.99 731.17 56.40 733.21 60.81 C 735.46 65.69 735.19 72.35 731.13 76.22 C 726.60 80.14 718.33 78.78 716.03 72.98 C 713.68 67.29 714.76 58.68 721.32 56.36 M 722.46 59.65 C 718.50 61.29 718.56 66.39 719.04 69.96 C 719.45 73.54 723.35 76.18 726.79 74.77 C 730.99 73.04 731.12 67.55 730.30 63.77 C 729.78 60.25 725.63 58.18 722.46 59.65 Z" />
<path fill="#ffffff" opacity="1.00" d=" M 739.03 56.24 C 740.66 56.43 743.09 55.81 743.02 58.26 C 746.64 55.34 752.55 54.76 755.50 58.93 C 757.99 57.13 760.82 55.40 764.05 55.96 C 767.32 55.91 769.53 59.06 769.75 62.07 C 770.06 67.32 769.79 72.59 769.85 77.85 C 768.58 77.86 767.32 77.86 766.07 77.87 C 765.89 72.62 766.36 67.34 765.82 62.11 C 764.47 57.61 758.74 59.87 756.15 62.02 C 756.33 67.30 756.24 72.60 756.22 77.89 C 754.96 77.87 753.70 77.86 752.46 77.84 C 752.19 72.27 752.95 66.62 751.95 61.12 C 749.61 57.94 745.32 60.11 742.75 61.83 C 742.78 67.16 742.78 72.49 742.74 77.83 C 741.49 77.85 740.25 77.88 739.01 77.90 C 739.00 70.68 738.97 63.46 739.03 56.24 Z" />
<path fill="#ffffff" opacity="1.00" d=" M 685.61 72.13 C 687.17 72.13 688.74 72.13 690.31 72.13 C 690.31 74.04 690.31 75.96 690.31 77.87 C 688.74 77.87 687.17 77.87 685.61 77.87 C 685.60 75.95 685.60 74.04 685.61 72.13 Z" />
<path fill="#ffffff" opacity="1.00" d=" M 441.01 79.49 C 463.02 79.49 485.03 79.52 507.04 79.48 C 505.39 92.69 495.30 104.97 482.14 107.88 C 468.46 109.02 454.71 108.19 441.00 108.44 C 441.00 98.79 440.99 89.14 441.01 79.49 Z" />
<path fill="#ffffff" opacity="1.00" d=" M 365.22 79.48 C 388.65 79.52 412.07 79.49 435.49 79.50 C 435.54 89.15 435.06 98.79 435.25 108.44 C 423.18 108.44 411.11 108.47 399.05 108.43 C 395.41 108.29 391.71 108.41 388.16 107.50 C 375.98 103.58 366.74 92.16 365.22 79.48 Z" />
</g>
</svg>
