<?xml version="1.0" encoding="iso-8859-1"?>
<!-- Generator: Adobe Illustrator 19.0.0, SVG Export Plug-In . SVG Version: 6.00 Build 0)  -->
<svg version="1.1" id="Capa_1" xmlns="http://www.w3.org/2000/svg" xmlns:xlink="http://www.w3.org/1999/xlink" x="0px" y="0px"
	 viewBox="0 0 512.001 512.001" style="enable-background:new 0 0 512.001 512.001;" xml:space="preserve">
<g>
	<g>
		<path d="M204.701,88.519H100.088c-4.166,0-7.544,3.377-7.544,7.544s3.378,7.544,7.544,7.544h104.613
			c4.166,0,7.544-3.377,7.544-7.544S208.867,88.519,204.701,88.519z"/>
	</g>
</g>
<g>
	<g>
		<path d="M156.418,160.943h-56.33c-4.166,0-7.544,3.377-7.544,7.544s3.378,7.544,7.544,7.544h56.33
			c4.166,0,7.544-3.377,7.544-7.544S160.584,160.943,156.418,160.943z"/>
	</g>
</g>
<g>
	<g>
		<path d="M204.701,233.367H100.088c-4.166,0-7.544,3.377-7.544,7.544s3.378,7.544,7.544,7.544h104.613
			c4.166,0,7.544-3.377,7.544-7.544S208.867,233.367,204.701,233.367z"/>
	</g>
</g>
<g>
	<g>
		<path d="M293.22,88.519h-56.33c-4.166,0-7.544,3.377-7.544,7.544s3.378,7.544,7.544,7.544h56.33c4.166,0,7.544-3.377,7.544-7.544
			S297.386,88.519,293.22,88.519z"/>
	</g>
</g>
<g>
	<g>
		<path d="M293.22,160.943H188.607c-4.166,0-7.544,3.377-7.544,7.544s3.378,7.544,7.544,7.544H293.22
			c4.166,0,7.544-3.377,7.544-7.544S297.386,160.943,293.22,160.943z"/>
	</g>
</g>
<g>
	<g>
		<path d="M293.22,233.367h-56.33c-4.166,0-7.544,3.377-7.544,7.544s3.378,7.544,7.544,7.544h56.33c4.166,0,7.544-3.377,7.544-7.544
			S297.386,233.367,293.22,233.367z"/>
	</g>
</g>
<g>
	<g>
		<path d="M204.701,305.792H100.088c-4.166,0-7.544,3.377-7.544,7.544c0,4.167,3.378,7.544,7.544,7.544h104.613
			c4.166,0,7.544-3.377,7.544-7.544C212.245,309.169,208.867,305.792,204.701,305.792z"/>
	</g>
</g>
<g>
	<g>
		<path d="M252.984,305.792h-16.094c-4.166,0-7.544,3.377-7.544,7.544c0,4.167,3.378,7.544,7.544,7.544h16.094
			c4.166,0,7.544-3.377,7.544-7.544C260.528,309.169,257.15,305.792,252.984,305.792z"/>
	</g>
</g>
<g>
	<g>
		<path d="M461.678,371.49l-26.299-5.26c-0.789-2.124-1.667-4.233-2.629-6.313l14.885-22.328c1.995-2.993,1.6-6.977-0.943-9.52
			l-25.369-25.369c-2.543-2.542-6.527-2.936-9.519-0.943l-22.328,14.885c-2.081-0.963-4.19-1.841-6.314-2.629l-5.259-26.298
			c-0.705-3.527-3.801-6.065-7.397-6.065h-13.413V111.654h72.927c4.166,0,7.544-3.377,7.544-7.544V47.78
			c0-26.345-21.435-47.78-47.78-47.78H116.182C76.525,0,44.261,32.264,44.261,71.921v83.997c0,4.167,3.378,7.544,7.544,7.544
			c4.166,0,7.544-3.377,7.544-7.544V71.921c0-31.338,25.495-56.833,56.833-56.833H354.97c-8.036,8.553-12.965,20.057-12.965,32.692
			v233.87h-7.376c-3.596,0-6.692,2.538-7.397,6.065l-5.259,26.298c-2.124,0.789-4.233,1.667-6.314,2.629l-22.328-14.885
			c-2.992-1.995-6.976-1.599-9.519,0.943l-25.369,25.369c-2.543,2.543-2.937,6.527-0.943,9.52l14.885,22.328
			c-0.963,2.08-1.841,4.189-2.629,6.313l-26.299,5.26c-3.526,0.705-6.065,3.801-6.065,7.397v35.876c0,3.596,2.538,6.692,6.065,7.397
			l26.298,5.26c0.79,2.124,1.668,4.234,2.629,6.313l-0.542,0.814H59.349v-242.42c0-4.167-3.378-7.544-7.544-7.544
			c-4.166,0-7.544,3.377-7.544,7.544V442.09c0,4.167,3.378,7.544,7.544,7.544h209.98l-4.285,6.429
			c-1.995,2.993-1.6,6.977,0.943,9.52l25.369,25.369c2.543,2.542,6.526,2.936,9.519,0.943l22.328-14.885
			c2.081,0.963,4.19,1.841,6.314,2.629l5.259,26.298c0.705,3.527,3.801,6.065,7.397,6.065h35.877c3.596,0,6.692-2.538,7.397-6.065
			l5.259-26.298c2.124-0.789,4.233-1.667,6.314-2.629l22.328,14.885c2.993,1.997,6.977,1.601,9.519-0.943l25.369-25.369
			c2.543-2.543,2.937-6.527,0.943-9.52l-14.885-22.328c0.963-2.079,1.841-4.189,2.629-6.313l26.298-5.26
			c3.526-0.705,6.065-3.801,6.065-7.397v-35.876C467.742,375.291,465.204,372.195,461.678,371.49z M357.094,47.78
			c0-18.027,14.666-32.692,32.692-32.692c18.026,0,32.692,14.665,32.692,32.692v48.786h-65.383V47.78z M452.654,408.579
			l-24.487,4.898c-2.706,0.541-4.902,2.518-5.723,5.152c-1.286,4.127-2.99,8.219-5.062,12.163c-1.285,2.444-1.131,5.396,0.401,7.693
			l13.867,20.801l-16.622,16.621l-20.801-13.866c-2.297-1.532-5.249-1.686-7.693-0.401c-3.95,2.075-8.042,3.778-12.162,5.062
			c-2.635,0.821-4.612,3.016-5.154,5.722l-4.897,24.487h-23.508l-4.897-24.487c-0.541-2.707-2.518-4.902-5.154-5.723
			c-4.12-1.284-8.212-2.987-12.162-5.062c-2.445-1.285-5.396-1.132-7.693,0.401l-20.801,13.866l-16.622-16.621l13.867-20.801
			c1.532-2.297,1.686-5.25,0.401-7.693c-2.072-3.944-3.775-8.036-5.062-12.163c-0.821-2.634-3.017-4.611-5.723-5.152l-24.487-4.898
			v-23.507l24.487-4.898c2.706-0.541,4.902-2.518,5.723-5.152c1.286-4.125,2.989-8.217,5.062-12.163
			c1.285-2.445,1.131-5.396-0.401-7.693l-13.867-20.801l16.622-16.621l20.801,13.866c2.297,1.533,5.249,1.686,7.693,0.401
			c3.95-2.075,8.042-3.778,12.162-5.062c2.635-0.821,4.612-3.016,5.154-5.723l4.897-24.488h23.508l4.897,24.487
			c0.541,2.707,2.518,4.902,5.154,5.723c4.12,1.284,8.212,2.987,12.162,5.062c2.444,1.283,5.396,1.131,7.693-0.401l20.801-13.866
			l16.622,16.621l-13.867,20.801c-1.532,2.297-1.686,5.249-0.401,7.693c2.073,3.946,3.776,8.038,5.062,12.163
			c0.821,2.634,3.017,4.611,5.723,5.152l24.487,4.898V408.579z"/>
	</g>
</g>
<g>
	<g>
		<path d="M352.567,353.404c-23.942,0-43.421,19.478-43.421,43.421c0,23.943,19.478,43.421,43.421,43.421
			c23.943,0,43.421-19.478,43.421-43.421C395.989,372.882,376.51,353.404,352.567,353.404z M352.567,425.158
			c-15.623,0-28.333-12.71-28.333-28.333c0-15.622,12.709-28.333,28.333-28.333c15.623,0,28.333,12.711,28.333,28.333
			C380.9,412.448,368.19,425.158,352.567,425.158z"/>
	</g>
</g>
<g>
</g>
<g>
</g>
<g>
</g>
<g>
</g>
<g>
</g>
<g>
</g>
<g>
</g>
<g>
</g>
<g>
</g>
<g>
</g>
<g>
</g>
<g>
</g>
<g>
</g>
<g>
</g>
<g>
</g>
</svg>
